<?xml version="1.0" encoding="UTF-8" standalone="no"?><svg xmlns="http://www.w3.org/2000/svg" xmlns:xlink="http://www.w3.org/1999/xlink" contentStyleType="text/css" height="1221px" preserveAspectRatio="none" style="width:659px;height:1221px;background:#FFFFFF;" version="1.1" viewBox="0 0 659 1221" width="659px" zoomAndPan="magnify"><defs/><g><rect fill="none" height="26.4883" id="_title" style="stroke:none;stroke-width:1.0;" width="275" x="193.5" y="10"/><text fill="#000000" font-family="sans-serif" font-size="14" font-weight="bold" lengthAdjust="spacing" textLength="265" x="198.5" y="28.5352">ResearchCloud Provisioning Services</text><rect fill="none" height="134.5527" style="stroke:#000000;stroke-width:1.5;" width="499.5" x="10" y="135.9766"/><rect fill="none" height="628.6953" style="stroke:#000000;stroke-width:1.5;" width="509.5" x="10" y="284.5293"/><rect fill="none" height="137.1738" style="stroke:#000000;stroke-width:1.5;" width="319" x="190.5" y="769.0508"/><rect fill="none" height="61.9316" style="stroke:#000000;stroke-width:1.5;" width="462.5" x="190.5" y="927.2246"/><rect fill="none" height="120.5527" style="stroke:#000000;stroke-width:1.5;" width="643" x="10" y="1003.1563"/><line style="stroke:#181818;stroke-width:0.5;stroke-dasharray:5.0,5.0;" x1="38" x2="38" y1="118.9766" y2="1140.709"/><line style="stroke:#181818;stroke-width:0.5;stroke-dasharray:5.0,5.0;" x1="258.5" x2="258.5" y1="118.9766" y2="1140.709"/><line style="stroke:#181818;stroke-width:0.5;stroke-dasharray:5.0,5.0;" x1="472.5" x2="472.5" y1="118.9766" y2="1140.709"/><line style="stroke:#181818;stroke-width:0.5;stroke-dasharray:5.0,5.0;" x1="623" x2="623" y1="118.9766" y2="1140.709"/><text fill="#000000" font-family="sans-serif" font-size="14" lengthAdjust="spacing" textLength="30" x="20" y="116.0234">user</text><ellipse cx="38" cy="50.9883" fill="#E2E2F0" rx="8" ry="8" style="stroke:#181818;stroke-width:0.5;"/><path d="M38,58.9883 L38,85.9883 M25,66.9883 L51,66.9883 M38,85.9883 L25,100.9883 M38,85.9883 L51,100.9883 " fill="none" style="stroke:#181818;stroke-width:0.5;"/><text fill="#000000" font-family="sans-serif" font-size="14" lengthAdjust="spacing" textLength="30" x="20" y="1153.2441">user</text><ellipse cx="38" cy="1164.6973" fill="#E2E2F0" rx="8" ry="8" style="stroke:#181818;stroke-width:0.5;"/><path d="M38,1172.6973 L38,1199.6973 M25,1180.6973 L51,1180.6973 M38,1199.6973 L25,1214.6973 M38,1199.6973 L51,1214.6973 " fill="none" style="stroke:#181818;stroke-width:0.5;"/><rect fill="#E2E2F0" height="30.4883" rx="2.5" ry="2.5" style="stroke:#181818;stroke-width:0.5;" width="117" x="200.5" y="87.4883"/><text fill="#000000" font-family="sans-serif" font-size="14" lengthAdjust="spacing" textLength="103" x="207.5" y="108.0234">ResearchCloud</text><rect fill="#E2E2F0" height="30.4883" rx="2.5" ry="2.5" style="stroke:#181818;stroke-width:0.5;" width="117" x="200.5" y="1139.709"/><text fill="#000000" font-family="sans-serif" font-size="14" lengthAdjust="spacing" textLength="103" x="207.5" y="1160.2441">ResearchCloud</text><rect fill="#E2E2F0" height="30.4883" rx="2.5" ry="2.5" style="stroke:#181818;stroke-width:0.5;" width="53" x="446.5" y="87.4883"/><text fill="#000000" font-family="sans-serif" font-size="14" lengthAdjust="spacing" textLength="39" x="453.5" y="108.0234">SRAM</text><rect fill="#E2E2F0" height="30.4883" rx="2.5" ry="2.5" style="stroke:#181818;stroke-width:0.5;" width="53" x="446.5" y="1139.709"/><text fill="#000000" font-family="sans-serif" font-size="14" lengthAdjust="spacing" textLength="39" x="453.5" y="1160.2441">SRAM</text><rect fill="#E2E2F0" height="30.4883" rx="2.5" ry="2.5" style="stroke:#181818;stroke-width:0.5;" width="40" x="603" y="87.4883"/><text fill="#000000" font-family="sans-serif" font-size="14" lengthAdjust="spacing" textLength="26" x="610" y="108.0234">XYZ</text><rect fill="#E2E2F0" height="30.4883" rx="2.5" ry="2.5" style="stroke:#181818;stroke-width:0.5;" width="40" x="603" y="1139.709"/><text fill="#000000" font-family="sans-serif" font-size="14" lengthAdjust="spacing" textLength="26" x="610" y="1160.2441">XYZ</text><path d="M10,135.9766 L247,135.9766 L247,143.2871 L237,153.2871 L10,153.2871 L10,135.9766 " fill="#EEEEEE" style="stroke:#000000;stroke-width:1.5;"/><rect fill="none" height="134.5527" style="stroke:#000000;stroke-width:1.5;" width="499.5" x="10" y="135.9766"/><text fill="#000000" font-family="sans-serif" font-size="13" font-weight="bold" lengthAdjust="spacing" textLength="192" x="25" y="149.5449">Authenticate ResearchCloud</text><polygon fill="#181818" points="247,170.5977,257,174.5977,247,178.5977,251,174.5977" style="stroke:#181818;stroke-width:1.0;"/><line style="stroke:#181818;stroke-width:1.0;" x1="38" x2="253" y1="174.5977" y2="174.5977"/><text fill="#000000" font-family="sans-serif" font-size="13" lengthAdjust="spacing" textLength="163" x="45" y="169.8555">Logon to "ResearchCloud"</text><polygon fill="#181818" points="49,199.9082,39,203.9082,49,207.9082,45,203.9082" style="stroke:#181818;stroke-width:1.0;"/><line style="stroke:#181818;stroke-width:1.0;" x1="43" x2="258" y1="203.9082" y2="203.9082"/><text fill="#000000" font-family="sans-serif" font-size="13" lengthAdjust="spacing" textLength="107" x="55" y="199.166">Redirect to SRAM</text><polygon fill="#181818" points="461,229.2188,471,233.2188,461,237.2188,465,233.2188" style="stroke:#181818;stroke-width:1.0;"/><line style="stroke:#181818;stroke-width:1.0;" x1="38" x2="467" y1="233.2188" y2="233.2188"/><text fill="#000000" font-family="sans-serif" font-size="13" lengthAdjust="spacing" textLength="80" x="45" y="228.4766">Authenticate</text><polygon fill="#181818" points="270,258.5293,260,262.5293,270,266.5293,266,262.5293" style="stroke:#181818;stroke-width:1.0;"/><line style="stroke:#181818;stroke-width:1.0;" x1="264" x2="472" y1="262.5293" y2="262.5293"/><text fill="#000000" font-family="sans-serif" font-size="13" lengthAdjust="spacing" textLength="123" x="276" y="257.7871">Access Token (SRC)</text><path d="M10,284.5293 L304,284.5293 L304,291.8398 L294,301.8398 L10,301.8398 L10,284.5293 " fill="#EEEEEE" style="stroke:#000000;stroke-width:1.5;"/><rect fill="none" height="628.6953" style="stroke:#000000;stroke-width:1.5;" width="509.5" x="10" y="284.5293"/><text fill="#000000" font-family="sans-serif" font-size="13" font-weight="bold" lengthAdjust="spacing" textLength="249" x="25" y="298.0977">Obtain Refresh token for Service XYZ</text><polygon fill="#181818" points="247,319.1504,257,323.1504,247,327.1504,251,323.1504" style="stroke:#181818;stroke-width:1.0;"/><line style="stroke:#181818;stroke-width:1.0;" x1="38" x2="253" y1="323.1504" y2="323.1504"/><text fill="#000000" font-family="sans-serif" font-size="13" lengthAdjust="spacing" textLength="95" x="45" y="318.4082">connect to XYZ</text><polygon fill="#181818" points="461,379.082,471,383.082,461,387.082,465,383.082" style="stroke:#181818;stroke-width:1.0;"/><line style="stroke:#181818;stroke-width:1.0;" x1="259" x2="467" y1="383.082" y2="383.082"/><text fill="#000000" font-family="sans-serif" font-size="13" font-weight="bold" lengthAdjust="spacing" textLength="184" x="266" y="347.7188">/oidc/device_authorization</text><text fill="#000000" font-family="sans-serif" font-size="13" lengthAdjust="spacing" textLength="88" x="266" y="363.0293">client_id=XYZ</text><text fill="#000000" font-family="sans-serif" font-size="13" lengthAdjust="spacing" textLength="190" x="266" y="378.3398">scope=openid+offline_access</text><polygon fill="#181818" points="270,423.7031,260,427.7031,270,431.7031,266,427.7031" style="stroke:#181818;stroke-width:1.0;"/><line style="stroke:#181818;stroke-width:1.0;" x1="264" x2="472" y1="427.7031" y2="427.7031"/><text fill="#000000" font-family="sans-serif" font-size="13" lengthAdjust="spacing" textLength="121" x="276" y="407.6504">device_code="xxx"</text><text fill="#000000" font-family="sans-serif" font-size="13" lengthAdjust="spacing" textLength="175" x="276" y="422.9609">verification_link=https://...</text><polygon fill="#181818" points="49,453.0137,39,457.0137,49,461.0137,45,457.0137" style="stroke:#181818;stroke-width:1.0;"/><line style="stroke:#181818;stroke-width:1.0;" x1="43" x2="258" y1="457.0137" y2="457.0137"/><text fill="#000000" font-family="sans-serif" font-size="13" lengthAdjust="spacing" textLength="197" x="55" y="452.2715">Present verification link to user</text><polygon fill="#181818" points="461,512.9453,471,516.9453,461,520.9453,465,516.9453" style="stroke:#181818;stroke-width:1.0;"/><line style="stroke:#181818;stroke-width:1.0;" x1="259" x2="467" y1="516.9453" y2="516.9453"/><text fill="#000000" font-family="sans-serif" font-size="13" font-weight="bold" lengthAdjust="spacing" textLength="80" x="266" y="481.582">/oidc/token</text><text fill="#000000" font-family="sans-serif" font-size="13" lengthAdjust="spacing" textLength="160" x="266" y="496.8926">grant_type=device_token</text><text fill="#000000" font-family="sans-serif" font-size="13" lengthAdjust="spacing" textLength="121" x="266" y="512.2031">device_code="xxx"</text><polygon fill="#181818" points="270,542.2559,260,546.2559,270,550.2559,266,546.2559" style="stroke:#181818;stroke-width:1.0;"/><line style="stroke:#181818;stroke-width:1.0;" x1="264" x2="472" y1="546.2559" y2="546.2559"/><text fill="#000000" font-family="sans-serif" font-size="13" lengthAdjust="spacing" textLength="63" x="276" y="541.5137">pending...</text><polygon fill="#181818" points="461,571.5664,471,575.5664,461,579.5664,465,575.5664" style="stroke:#181818;stroke-width:1.0;"/><line style="stroke:#181818;stroke-width:1.0;" x1="38" x2="467" y1="575.5664" y2="575.5664"/><text fill="#000000" font-family="sans-serif" font-size="13" lengthAdjust="spacing" textLength="133" x="45" y="570.8242">click verification link</text><polygon fill="#181818" points="49,600.877,39,604.877,49,608.877,45,604.877" style="stroke:#181818;stroke-width:1.0;"/><line style="stroke:#181818;stroke-width:1.0;" x1="43" x2="472" y1="604.877" y2="604.877"/><text fill="#000000" font-family="sans-serif" font-size="13" lengthAdjust="spacing" textLength="150" x="55" y="600.1348">Authenticate + Consent</text><polygon fill="#181818" points="461,630.1875,471,634.1875,461,638.1875,465,634.1875" style="stroke:#181818;stroke-width:1.0;"/><line style="stroke:#181818;stroke-width:1.0;" x1="38" x2="467" y1="634.1875" y2="634.1875"/><text fill="#000000" font-family="sans-serif" font-size="13" lengthAdjust="spacing" textLength="66" x="45" y="629.4453">Accepted !</text><polygon fill="#181818" points="461,690.1191,471,694.1191,461,698.1191,465,694.1191" style="stroke:#181818;stroke-width:1.0;"/><line style="stroke:#181818;stroke-width:1.0;" x1="259" x2="467" y1="694.1191" y2="694.1191"/><text fill="#000000" font-family="sans-serif" font-size="13" font-weight="bold" lengthAdjust="spacing" textLength="80" x="266" y="658.7559">/oidc/token</text><text fill="#000000" font-family="sans-serif" font-size="13" lengthAdjust="spacing" textLength="160" x="266" y="674.0664">grant_type=device_token</text><text fill="#000000" font-family="sans-serif" font-size="13" lengthAdjust="spacing" textLength="121" x="266" y="689.377">device_code="xxx"</text><polygon fill="#181818" points="270,750.0508,260,754.0508,270,758.0508,266,754.0508" style="stroke:#181818;stroke-width:1.0;"/><line style="stroke:#181818;stroke-width:1.0;" x1="264" x2="472" y1="754.0508" y2="754.0508"/><text fill="#000000" font-family="sans-serif" font-size="13" lengthAdjust="spacing" textLength="87" x="276" y="718.6875">id_token="iii"</text><text fill="#000000" font-family="sans-serif" font-size="13" lengthAdjust="spacing" textLength="126" x="276" y="733.998">access_token="aaa"</text><text fill="#000000" font-family="sans-serif" font-size="13" lengthAdjust="spacing" textLength="122" x="276" y="749.3086">refresh_token="rrr"</text><path d="M190.5,769.0508 L317.5,769.0508 L317.5,776.3613 L307.5,786.3613 L190.5,786.3613 L190.5,769.0508 " fill="#EEEEEE" style="stroke:#000000;stroke-width:1.5;"/><rect fill="none" height="137.1738" style="stroke:#000000;stroke-width:1.5;" width="319" x="190.5" y="769.0508"/><text fill="#000000" font-family="sans-serif" font-size="13" font-weight="bold" lengthAdjust="spacing" textLength="82" x="205.5" y="782.6191">repeatable...</text><polygon fill="#181818" points="461,834.293,471,838.293,461,842.293,465,838.293" style="stroke:#181818;stroke-width:1.0;"/><line style="stroke:#181818;stroke-width:1.0;" x1="259" x2="467" y1="838.293" y2="838.293"/><text fill="#000000" font-family="sans-serif" font-size="13" font-weight="bold" lengthAdjust="spacing" textLength="80" x="266" y="802.9297">/oidc/token</text><text fill="#000000" font-family="sans-serif" font-size="13" lengthAdjust="spacing" textLength="164" x="266" y="818.2402">grant_type=refresh_token</text><text fill="#000000" font-family="sans-serif" font-size="13" lengthAdjust="spacing" textLength="122" x="266" y="833.5508">refresh_token="rrr"</text><polygon fill="#181818" points="270,894.2246,260,898.2246,270,902.2246,266,898.2246" style="stroke:#181818;stroke-width:1.0;"/><line style="stroke:#181818;stroke-width:1.0;" x1="264" x2="472" y1="898.2246" y2="898.2246"/><text fill="#000000" font-family="sans-serif" font-size="13" lengthAdjust="spacing" textLength="87" x="276" y="862.8613">id_token="iii"</text><text fill="#000000" font-family="sans-serif" font-size="13" lengthAdjust="spacing" textLength="126" x="276" y="878.1719">access_token="aaa"</text><text fill="#000000" font-family="sans-serif" font-size="13" lengthAdjust="spacing" textLength="122" x="276" y="893.4824">refresh_token="rrr"</text><path d="M190.5,927.2246 L553.5,927.2246 L553.5,934.5352 L543.5,944.5352 L190.5,944.5352 L190.5,927.2246 " fill="#EEEEEE" style="stroke:#000000;stroke-width:1.5;"/><rect fill="none" height="61.9316" style="stroke:#000000;stroke-width:1.5;" width="462.5" x="190.5" y="927.2246"/><text fill="#000000" font-family="sans-serif" font-size="13" font-weight="bold" lengthAdjust="spacing" textLength="318" x="205.5" y="940.793">Provision/Refresh workspace connected to XYZ</text><polygon fill="#181818" points="611,977.1563,621,981.1563,611,985.1563,615,981.1563" style="stroke:#181818;stroke-width:1.0;"/><line style="stroke:#181818;stroke-width:1.0;" x1="259" x2="617" y1="981.1563" y2="981.1563"/><text fill="#000000" font-family="sans-serif" font-size="13" lengthAdjust="spacing" textLength="106" x="266" y="961.1035">Provision service</text><text fill="#000000" font-family="sans-serif" font-size="13" lengthAdjust="spacing" textLength="153" x="266" y="976.4141">pass access_token "aaa"</text><path d="M10,1003.1563 L81,1003.1563 L81,1010.4668 L71,1020.4668 L10,1020.4668 L10,1003.1563 " fill="#EEEEEE" style="stroke:#000000;stroke-width:1.5;"/><rect fill="none" height="120.5527" style="stroke:#000000;stroke-width:1.5;" width="643" x="10" y="1003.1563"/><text fill="#000000" font-family="sans-serif" font-size="13" font-weight="bold" lengthAdjust="spacing" textLength="26" x="25" y="1016.7246">XYZ</text><polygon fill="#181818" points="611,1037.7773,621,1041.7773,611,1045.7773,615,1041.7773" style="stroke:#181818;stroke-width:1.0;"/><line style="stroke:#181818;stroke-width:1.0;" x1="38" x2="617" y1="1041.7773" y2="1041.7773"/><text fill="#000000" font-family="sans-serif" font-size="13" lengthAdjust="spacing" textLength="166" x="45" y="1037.0352">User connects to service...</text><polygon fill="#181818" points="484,1082.3984,474,1086.3984,484,1090.3984,480,1086.3984" style="stroke:#181818;stroke-width:1.0;"/><line style="stroke:#181818;stroke-width:1.0;" x1="478" x2="622" y1="1086.3984" y2="1086.3984"/><text fill="#000000" font-family="sans-serif" font-size="13" font-weight="bold" lengthAdjust="spacing" textLength="98" x="490" y="1066.3457">/oidc/userinfo</text><text fill="#000000" font-family="sans-serif" font-size="13" lengthAdjust="spacing" textLength="126" x="490" y="1081.6563">access_token="aaa"</text><polygon fill="#181818" points="611,1111.709,621,1115.709,611,1119.709,615,1115.709" style="stroke:#181818;stroke-width:1.0;"/><line style="stroke:#181818;stroke-width:1.0;" x1="473" x2="617" y1="1115.709" y2="1115.709"/><text fill="#000000" font-family="sans-serif" font-size="13" lengthAdjust="spacing" textLength="73" x="480" y="1110.9668">user details</text><!--MD5=[9e90b95275b8c2af8092384fbc0d4d9e]
@startuml assets/ResearchCloud

title "ResearchCloud Provisioning Services"

actor user
participant SRC as "ResearchCloud"
participant SRAM

group Authenticate ResearchCloud
user -> SRC: Logon to "ResearchCloud"
user <- SRC: Redirect to SRAM
user -> SRAM: Authenticate
SRC <- SRAM: Access Token (SRC)
end

group Obtain Refresh token for Service XYZ
user -> SRC: connect to XYZ
SRC -> SRAM: **/oidc/device_authorization**\nclient_id=XYZ\nscope=openid+offline_access
SRC <- SRAM: device_code="xxx"\nverification_link=https://...
user <- SRC: Present verification link to user
SRC -> SRAM: **/oidc/token**\ngrant_type=device_token\ndevice_code="xxx"
SRC <- SRAM: pending...
user -> SRAM: click verification link
user <- SRAM: Authenticate + Consent
user -> SRAM: Accepted !
SRC -> SRAM: **/oidc/token**\ngrant_type=device_token\ndevice_code="xxx"

SRC <- SRAM: id_token="iii"\naccess_token="aaa"\nrefresh_token="rrr"
group repeatable...
SRC -> SRAM: **/oidc/token**\ngrant_type=refresh_token\nrefresh_token="rrr"
SRC <- SRAM: id_token="iii"\naccess_token="aaa"\nrefresh_token="rrr"
end
end

group Provision/Refresh workspace connected to XYZ
SRC -> XYZ: Provision service\npass access_token "aaa"
end

group XYZ
user -> XYZ: User connects to service...
XYZ -> SRAM: **/oidc/userinfo**\naccess_token="aaa"
XYZ <- SRAM: user details
end

@enduml

PlantUML version 1.2022.7(Mon Aug 22 19:01:30 CEST 2022)
(GPL source distribution)
Java Runtime: OpenJDK Runtime Environment
JVM: OpenJDK 64-Bit Server VM
Default Encoding: UTF-8
Language: en
Country: NL
--></g></svg>